<svg width="131" height="30" viewBox="0 0 131 30" fill="none" xmlns="http://www.w3.org/2000/svg">
<path d="M39.1016 17.3506V14.5974H46.9485C47.8852 14.5974 48.6274 14.355 49.1753 13.8701C49.7232 13.368 49.9971 12.6753 49.9971 11.7922C49.9971 10.8745 49.7232 10.1732 49.1753 9.68831C48.6274 9.20346 47.8852 8.96104 46.9485 8.96104H39.5258V22.8052H36V6H46.6304C47.5847 6 48.4772 6.11256 49.3079 6.33766C50.1562 6.56277 50.8896 6.90909 51.5082 7.37662C52.1444 7.84416 52.6392 8.44156 52.9927 9.16883C53.3462 9.8961 53.5229 10.7706 53.5229 11.7922C53.5229 12.7965 53.3462 13.6537 52.9927 14.3636C52.6392 15.0736 52.1444 15.6537 51.5082 16.1039C50.8896 16.5368 50.1562 16.8571 49.3079 17.0649C48.4772 17.2554 47.5847 17.3506 46.6304 17.3506H39.1016Z" fill="white"/>
<path d="M62.2883 23.0909C60.9805 23.0909 59.7875 22.8139 58.7095 22.2597C57.6491 21.6883 56.8008 20.9004 56.1645 19.8961C55.546 18.8745 55.2367 17.697 55.2367 16.3636C55.2367 14.9957 55.5548 13.8095 56.1911 12.8052C56.8273 11.8009 57.6844 11.0216 58.7625 10.4675C59.8582 9.8961 61.0953 9.61039 62.4738 9.61039C63.9937 9.61039 65.2132 9.91342 66.1322 10.5195C67.0689 11.1082 67.7493 11.9134 68.1734 12.9351C68.5976 13.9567 68.8097 15.0996 68.8097 16.3636C68.8097 17.1255 68.6859 17.9048 68.4385 18.7013C68.1911 19.4805 67.8111 20.2078 67.2986 20.8831C66.7861 21.5411 66.1145 22.0779 65.2839 22.4935C64.4532 22.8918 63.4547 23.0909 62.2883 23.0909ZM63.4017 20.4935C64.4444 20.4935 65.3457 20.3203 66.1057 19.974C66.8656 19.6277 67.4488 19.1429 67.8553 18.5195C68.2618 17.8961 68.465 17.1775 68.465 16.3636C68.465 15.4805 68.253 14.7359 67.8288 14.1299C67.4223 13.5065 66.8391 13.039 66.0792 12.7273C65.3369 12.3983 64.4444 12.2338 63.4017 12.2338C61.9348 12.2338 60.7949 12.6147 59.9819 13.3766C59.169 14.1212 58.7625 15.1169 58.7625 16.3636C58.7625 17.1948 58.9569 17.9221 59.3457 18.5455C59.7345 19.1515 60.2735 19.6277 60.9628 19.974C61.6697 20.3203 62.4827 20.4935 63.4017 20.4935ZM68.465 9.8961H71.9113V22.8052H68.7036C68.7036 22.8052 68.6771 22.6407 68.6241 22.3117C68.5887 21.9654 68.5534 21.5325 68.5181 21.013C68.4827 20.4935 68.465 19.9827 68.465 19.4805V9.8961Z" fill="white"/>
<path d="M92.2086 20.4675L91.1217 20.4416L95.4163 9.8961H99.2072L93.4015 22.8052H90.1674L85.9258 12.3896H87.0922L82.7181 22.8052H79.4839L73.8374 9.8961H77.6283L81.7638 20.4675H80.6769L84.5473 9.8961H88.4972L92.2086 20.4675Z" fill="white"/>
<path d="M100.44 18.5195H103.621C103.816 19.1082 104.213 19.5931 104.814 19.974C105.433 20.3377 106.237 20.5195 107.227 20.5195C107.898 20.5195 108.42 20.4589 108.791 20.3377C109.162 20.2165 109.418 20.0433 109.56 19.8182C109.701 19.5758 109.772 19.3074 109.772 19.013C109.772 18.6493 109.657 18.3723 109.427 18.1818C109.197 17.974 108.844 17.8095 108.367 17.6883C107.889 17.5671 107.28 17.4545 106.537 17.3506C105.795 17.2294 105.079 17.0823 104.39 16.9091C103.701 16.7359 103.091 16.5108 102.561 16.2338C102.031 15.9394 101.607 15.5758 101.289 15.1429C100.988 14.6926 100.838 14.1472 100.838 13.5065C100.838 12.8831 100.988 12.329 101.289 11.8442C101.607 11.3593 102.04 10.9524 102.588 10.6234C103.153 10.2944 103.807 10.0433 104.549 9.87013C105.309 9.69697 106.122 9.61039 106.988 9.61039C108.296 9.61039 109.383 9.80087 110.249 10.1818C111.115 10.5455 111.76 11.0649 112.184 11.7403C112.626 12.3983 112.847 13.1602 112.847 14.026H109.798C109.657 13.3853 109.374 12.9264 108.95 12.6494C108.526 12.355 107.872 12.2078 106.988 12.2078C106.122 12.2078 105.468 12.3377 105.026 12.5974C104.585 12.8571 104.364 13.2121 104.364 13.6623C104.364 14.026 104.496 14.3117 104.761 14.5195C105.044 14.71 105.451 14.8658 105.981 14.987C106.529 15.1082 107.209 15.2381 108.022 15.3766C108.711 15.5152 109.365 15.671 109.984 15.8442C110.62 16.0173 111.186 16.2424 111.68 16.5195C112.175 16.7792 112.564 17.1342 112.847 17.5844C113.147 18.0173 113.297 18.5714 113.297 19.2468C113.297 20.0779 113.05 20.7792 112.555 21.3506C112.078 21.9221 111.389 22.3636 110.487 22.6753C109.586 22.9697 108.508 23.1169 107.253 23.1169C106.14 23.1169 105.177 23.0043 104.364 22.7792C103.568 22.5368 102.906 22.2338 102.375 21.8701C101.845 21.4892 101.43 21.0909 101.13 20.6753C100.847 20.2424 100.652 19.8355 100.546 19.4545C100.44 19.0736 100.405 18.7619 100.44 18.5195Z" fill="white"/>
<path d="M114.482 9.8961H118.14L123.84 22.2857L120.871 22.8052L114.482 9.8961ZM130.6 9.8961L121.481 28H117.902L121.799 20.8831L126.915 9.8961H130.6Z" fill="white"/>
<path fill-rule="evenodd" clip-rule="evenodd" d="M8.40475 0.0254565C9.90963 -0.223062 11.4289 1.3761 11.7925 3.59475C12.1562 5.81341 11.2309 7.81596 9.72602 8.06088C8.22113 8.3094 6.70185 6.71024 6.33823 4.49158C5.97101 2.27293 6.89626 0.273975 8.40475 0.0254565Z" fill="white"/>
<path fill-rule="evenodd" clip-rule="evenodd" d="M1.1057 5.93249C2.24336 5.42105 3.77345 6.3647 4.52589 8.0395C5.27834 9.71429 4.96512 11.4863 3.82745 11.9978C2.68979 12.5092 1.1597 11.5656 0.407258 9.89078C-0.341585 8.21598 -0.0283662 6.44394 1.1057 5.93249Z" fill="white"/>
<path fill-rule="evenodd" clip-rule="evenodd" d="M17.8282 0.0254565C16.3233 -0.223062 14.804 1.3761 14.4404 3.59475C14.0768 5.81341 15.002 7.81596 16.5069 8.06088C18.0118 8.3094 19.5311 6.71024 19.8947 4.49158C20.2619 2.27293 19.3367 0.273975 17.8282 0.0254565Z" fill="white"/>
<path fill-rule="evenodd" clip-rule="evenodd" d="M25.1268 5.93249C23.9892 5.42105 22.4591 6.3647 21.7066 8.0395C20.9542 9.71429 21.2674 11.4863 22.4051 11.9978C23.5428 12.5092 25.0728 11.5656 25.8253 9.89078C26.5741 8.21598 26.2609 6.44394 25.1268 5.93249Z" fill="white"/>
<path d="M23.2686 19.1141C23.2686 24.6217 15.4797 29.502 9.97203 29.502C4.46439 29.502 2.9082 25.0372 2.9082 19.5296C2.9082 14.0219 7.78854 9.1416 13.2962 9.1416C18.8038 9.1416 23.2686 13.6064 23.2686 19.1141Z" fill="white"/>
</svg>
